<?xml version="1.0" standalone="no"?>
<!DOCTYPE svg PUBLIC "-//W3C//DTD SVG 20010904//EN"
 "http://www.w3.org/TR/2001/REC-SVG-20010904/DTD/svg10.dtd">
<svg version="1.0" xmlns="http://www.w3.org/2000/svg"
 width="225.000000pt" height="225.000000pt" viewBox="0 0 225.000000 225.000000"
 preserveAspectRatio="xMidYMid meet">

<g transform="translate(0.000000,225.000000) scale(0.100000,-0.100000)"
fill="#000000" stroke="none">
<path d="M950 2195 c-463 -73 -826 -435 -900 -898 -18 -107 -8 -329 19 -429
82 -311 297 -572 583 -708 146 -69 241 -92 418 -97 120 -4 175 -2 244 11 413
78 738 385 847 801 20 78 23 113 23 260 -1 150 -4 181 -26 266 -52 194 -151
362 -295 499 -48 47 -113 101 -143 121 -235 155 -504 215 -770 174z m355 -82
c123 -24 271 -85 372 -155 289 -198 478 -602 433 -926 -24 -174 -107 -383
-203 -512 -126 -169 -331 -302 -555 -362 -110 -29 -292 -35 -405 -14 -396 75
-699 353 -802 736 -124 459 105 946 542 1156 197 94 401 119 618 77z"/>
<path d="M1057 1970 c-113 -44 -219 -161 -254 -279 -21 -72 -21 -180 0 -252
38 -129 156 -249 280 -288 34 -10 109 -22 167 -26 57 -4 139 -17 182 -29 l77
-23 -19 27 c-42 59 -115 113 -216 160 -168 79 -258 189 -286 350 -21 119 16
257 92 343 17 20 30 37 29 37 -2 -1 -26 -9 -52 -20z"/>
<path d="M505 1680 c-36 -56 -70 -139 -91 -221 -25 -98 -15 -300 20 -399 75
-213 245 -383 452 -454 85 -29 117 -34 256 -45 87 -7 119 -15 170 -39 81 -38
141 -91 189 -165 l38 -59 45 47 c91 93 138 242 116 366 -22 122 -79 216 -172
285 -69 50 -166 84 -243 84 -76 0 -220 27 -287 54 -229 93 -405 299 -452 531
l-13 60 -28 -45z"/>
</g>
</svg>
