<?xml version="1.0" standalone="no"?>
<!DOCTYPE svg PUBLIC "-//W3C//DTD SVG 20010904//EN"
 "http://www.w3.org/TR/2001/REC-SVG-20010904/DTD/svg10.dtd">
<svg version="1.0" xmlns="http://www.w3.org/2000/svg"
 width="1600.000000pt" height="1066.000000pt" viewBox="0 0 1600.000000 1066.000000"
 preserveAspectRatio="xMidYMid meet">

<g transform="translate(0.000000,1066.000000) scale(0.100000,-0.100000)"
fill="#000000" stroke="none">
<path d="M8472 9908 c-7 -7 -12 -17 -12 -23 0 -14 47 -58 121 -113 78 -59 319
-307 414 -427 273 -343 496 -833 610 -1340 23 -106 45 -287 33 -275 -3 3 -30
46 -59 95 -129 220 -342 538 -522 780 -253 338 -467 559 -603 622 -89 40 -154
49 -229 28 -203 -55 -677 -417 -1118 -853 -193 -192 -289 -301 -345 -393 l-39
-64 -90 -5 c-110 -6 -127 -17 -120 -73 4 -29 17 -51 46 -81 87 -89 195 -137
786 -352 576 -210 745 -282 745 -319 0 -8 -2 -15 -5 -15 -2 0 -30 -7 -62 -15
-109 -29 -258 -45 -528 -55 -430 -17 -637 -29 -679 -41 -45 -12 -88 -51 -80
-72 7 -19 44 -35 97 -43 61 -10 72 -18 86 -64 14 -47 80 -118 179 -193 34 -26
62 -52 62 -58 0 -21 -155 -3 -330 36 -285 64 -503 138 -546 186 -48 53 -90
417 -81 694 5 133 3 166 -6 150 -19 -33 -21 -392 -3 -617 20 -244 20 -226 -6
-230 -37 -5 -34 -35 4 -51 39 -17 48 -35 107 -222 190 -601 572 -1048 1121
-1314 80 -38 192 -86 250 -106 128 -44 365 -104 440 -110 48 -5 42 -2 -50 24
-266 74 -503 184 -735 339 -179 121 -279 203 -439 360 -292 288 -510 612 -556
829 -11 51 -2 99 23 115 28 18 90 3 349 -81 483 -158 599 -184 818 -185 238
-1 430 54 758 215 238 116 302 144 379 164 83 22 125 19 150 -7 22 -25 73
-196 73 -247 0 -68 -76 -81 -510 -87 -295 -4 -450 -15 -450 -34 0 -14 116 -20
532 -27 l418 -6 -6 -26 c-11 -46 -53 -131 -99 -201 -87 -131 -185 -207 -578
-451 -93 -57 -198 -128 -233 -157 -70 -57 -124 -124 -124 -153 0 -25 65 -42
165 -43 70 0 89 4 148 32 66 30 282 176 382 256 28 23 100 87 160 143 142 131
239 208 345 273 120 73 567 296 576 287 29 -28 -37 -447 -132 -840 -31 -126
-53 -231 -50 -234 25 -26 153 517 206 880 21 137 36 209 48 225 9 13 168 115
352 226 535 322 847 525 822 534 -17 5 -62 -11 -291 -105 -112 -46 -206 -82
-208 -79 -3 3 24 51 60 108 138 221 185 348 202 553 10 115 -8 218 -67 393
-33 97 -48 156 -42 162 5 5 55 18 111 29 124 24 178 50 200 96 21 44 7 96 -47
175 -52 75 -187 206 -232 225 -54 22 -196 20 -293 -5 -100 -25 -262 -103 -342
-164 -72 -55 -137 -125 -164 -178 -29 -56 -4 -49 61 18 111 113 252 194 413
235 117 31 233 23 320 -19 69 -34 179 -128 202 -173 35 -68 8 -103 -105 -135
-142 -39 -189 -55 -194 -62 -3 -5 1 -47 9 -93 35 -218 28 -500 -16 -661 -39
-142 -152 -345 -285 -516 -57 -73 -171 -168 -276 -231 -60 -37 -82 -45 -123
-45 l-50 -1 5 160 c11 361 3 772 -19 972 -49 441 -150 804 -315 1131 -77 153
-308 478 -493 694 -129 150 -338 338 -378 338 -6 0 -16 -5 -23 -12z m-134
-963 c204 -95 559 -440 937 -910 175 -218 323 -423 368 -510 l31 -60 0 -350
c0 -365 -11 -500 -40 -522 -22 -16 -149 -49 -361 -93 -101 -21 -190 -44 -199
-51 -14 -12 -14 -14 2 -26 10 -7 32 -13 50 -13 40 0 204 33 356 71 141 35 152
36 138 10 -30 -57 -506 -313 -643 -347 l-29 -7 8 49 c4 27 22 99 39 160 18 61
36 139 40 175 13 121 -44 310 -111 368 -49 44 -93 54 -203 49 -120 -7 -215
-38 -436 -141 -183 -85 -375 -158 -485 -182 -104 -22 -281 -30 -353 -16 -82
18 -189 74 -256 137 -66 61 -100 119 -81 138 7 7 102 13 293 17 387 9 475 23
789 125 236 76 272 80 493 53 205 -25 273 -19 315 26 30 32 31 99 4 145 -32
56 -83 75 -199 75 -96 -1 -104 -3 -200 -44 -142 -61 -151 -62 -281 -8 -604
249 -1370 579 -1372 590 -3 14 351 362 693 682 94 88 208 196 255 241 104 101
135 126 179 149 102 52 178 58 259 20z m559 -1748 c14 -13 9 -16 -38 -26 -29
-6 -87 -14 -128 -18 -72 -5 -75 -5 -59 12 44 47 189 68 225 32z"/>
<path d="M10544 8405 c-8 -21 2 -45 19 -45 20 0 40 27 33 45 -7 19 -45 20 -52
0z"/>
<path d="M8178 4963 c6 -2 18 -2 25 0 6 3 1 5 -13 5 -14 0 -19 -2 -12 -5z"/>
<path d="M10445 4924 c-433 -44 -707 -227 -817 -547 -31 -90 -32 -96 -32 -272
0 -169 1 -185 27 -260 67 -201 210 -367 427 -496 30 -18 165 -87 300 -154 278
-138 344 -178 413 -247 64 -64 87 -116 87 -200 0 -105 -17 -155 -75 -214 -108
-111 -302 -137 -607 -83 -157 28 -477 136 -533 181 -13 10 -37 20 -52 21 l-28
2 -3 -268 c-1 -164 2 -275 8 -286 5 -11 29 -26 52 -35 24 -8 79 -28 123 -45
240 -87 626 -125 888 -86 449 67 710 264 809 610 30 107 29 351 -2 455 -55
180 -139 297 -305 422 -98 74 -184 123 -454 257 -283 141 -323 164 -388 224
-71 65 -87 105 -87 217 -1 85 2 100 26 140 36 62 73 94 143 127 58 26 66 27
215 26 131 0 172 -4 260 -26 100 -25 261 -77 342 -111 66 -28 51 -52 204 317
61 149 74 125 -105 193 -132 51 -296 96 -423 118 -87 15 -339 27 -413 20z"/>
<path d="M12715 4920 c-332 -35 -591 -152 -802 -361 -117 -116 -187 -222 -278
-424 -8 -16 -24 -64 -35 -105 -12 -41 -26 -86 -30 -100 -5 -14 -20 -77 -32
-140 -20 -103 -23 -144 -23 -385 0 -215 4 -290 18 -370 29 -160 66 -287 125
-432 99 -242 299 -450 537 -558 176 -80 345 -115 591 -122 244 -7 465 23 703
97 153 47 142 22 139 305 l-3 240 -25 -2 c-14 0 -63 -13 -110 -28 -215 -68
-427 -105 -602 -105 -319 0 -500 105 -632 368 -132 264 -155 764 -49 1097 9
28 38 97 66 154 42 89 62 117 126 181 120 119 245 175 416 187 180 11 366 -31
617 -142 112 -49 99 -54 142 56 14 35 44 109 66 164 76 182 90 223 77 233 -22
18 -187 82 -300 116 -218 66 -504 97 -702 76z"/>
<path d="M3303 4888 c-6 -7 -20 -40 -31 -73 -12 -33 -40 -112 -62 -175 -43
-120 -79 -222 -203 -580 -77 -221 -189 -539 -252 -715 -20 -55 -56 -156 -79
-225 -24 -69 -71 -204 -105 -300 -34 -96 -66 -188 -72 -205 -5 -16 -28 -82
-49 -145 -22 -63 -71 -200 -108 -305 -38 -104 -67 -193 -65 -197 2 -5 150 -8
328 -8 298 0 323 1 330 18 9 22 161 516 186 607 11 38 22 71 23 73 4 3 1069 3
1072 -1 1 -1 18 -56 38 -122 20 -66 61 -201 91 -300 31 -99 62 -200 69 -225
l12 -45 332 -3 c183 -1 332 0 332 2 0 3 -5 17 -11 33 -6 15 -29 78 -51 138
-95 264 -141 395 -163 465 -23 70 -135 391 -185 525 -12 33 -28 78 -35 100 -7
22 -35 99 -60 170 -26 72 -53 148 -60 170 -7 22 -30 85 -50 140 -46 125 -84
234 -140 400 -41 122 -85 247 -149 425 -15 41 -49 137 -76 214 -26 76 -54 142
-62 147 -7 5 -176 9 -374 9 -278 0 -364 -3 -371 -12z m419 -579 c16 -57 36
-126 44 -154 8 -27 23 -79 33 -115 10 -36 73 -239 140 -451 67 -213 121 -392
121 -398 0 -8 -104 -11 -375 -11 -346 0 -375 1 -375 17 0 9 22 87 49 172 60
188 200 655 231 766 12 44 30 107 40 140 11 33 24 79 30 103 6 24 16 42 22 40
6 -2 24 -51 40 -109z"/>
<path d="M5117 4883 c-4 -3 -7 -663 -7 -1465 l0 -1460 548 5 c352 3 574 8 622
16 403 64 660 180 873 394 194 194 305 433 362 775 20 123 20 474 0 592 -44
255 -105 419 -216 580 -230 336 -598 522 -1109 560 -149 11 -1063 14 -1073 3z
m1063 -503 c130 -14 210 -35 309 -82 162 -77 289 -238 350 -446 89 -297 66
-734 -49 -962 -60 -118 -181 -252 -279 -309 -134 -79 -280 -110 -560 -118
-191 -6 -205 -5 -218 12 -11 16 -13 185 -13 951 0 834 2 934 16 948 13 13 44
16 182 16 92 0 210 -5 262 -10z"/>
<path d="M7801 4876 c-8 -10 -10 -400 -9 -1462 l3 -1449 834 -3 c622 -1 837 1
842 9 9 15 12 429 3 463 l-6 26 -527 2 -526 3 -3 382 -2 383 492 2 493 3 0
245 0 245 -493 3 -492 2 2 328 3 327 524 3 c379 1 527 5 532 14 12 19 11 445
-1 468 -11 20 -19 20 -834 20 -681 0 -825 -2 -835 -14z"/>
<path d="M5442 1539 c-29 -34 -52 -65 -52 -70 0 -16 74 -10 100 8 45 31 130
105 130 114 0 5 -29 9 -63 9 l-64 0 -51 -61z"/>
<path d="M4426 1394 c-51 -19 -75 -40 -97 -89 -21 -46 -23 -84 -9 -137 16 -57
52 -92 142 -138 102 -52 128 -75 128 -111 0 -66 -92 -88 -206 -49 -83 28 -84
28 -84 -30 0 -59 15 -72 105 -90 144 -29 277 25 305 124 29 104 -15 174 -154
245 -112 56 -145 112 -96 161 24 24 104 27 164 5 22 -8 43 -12 48 -9 13 8 39
77 34 90 -6 16 -126 44 -188 43 -29 0 -71 -7 -92 -15z"/>
<path d="M6692 1389 c-111 -43 -161 -126 -169 -282 -10 -176 36 -276 154 -333
48 -24 69 -28 142 -28 158 -1 249 64 293 208 24 80 21 186 -8 275 -25 77 -93
143 -166 165 -77 22 -180 20 -246 -5z m204 -105 c19 -9 43 -29 54 -44 36 -51
44 -247 12 -306 -30 -56 -102 -86 -174 -74 -83 15 -119 65 -126 180 -6 107 11
179 51 217 18 17 39 33 47 36 31 11 103 6 136 -9z"/>
<path d="M9653 1402 c-12 -8 -67 -148 -83 -212 -5 -20 -39 -119 -75 -220 -37
-102 -68 -192 -68 -200 -2 -12 11 -15 63 -15 l65 0 24 73 24 72 123 0 123 0
23 -72 23 -73 68 -3 c37 -2 67 1 67 6 0 5 -16 53 -36 108 -20 54 -42 117 -49
139 -83 247 -136 390 -147 396 -16 11 -129 11 -145 1z m102 -190 c3 -20 17
-70 31 -111 13 -41 22 -76 20 -78 -9 -9 -132 -12 -145 -4 -11 7 -12 17 -3 47
6 22 20 73 32 114 31 111 29 108 45 87 7 -10 16 -35 20 -55z"/>
<path d="M13317 1396 c-12 -12 -77 -195 -190 -529 -13 -41 -24 -57 -35 -55 -8
2 -47 50 -85 107 l-71 103 42 35 c24 19 50 49 58 66 21 39 21 135 0 174 -41
81 -115 105 -302 101 l-119 -3 0 -320 0 -320 60 0 60 0 5 120 5 120 37 3 c35
3 39 0 71 -50 19 -29 55 -86 81 -126 l47 -73 122 3 122 3 24 73 24 72 118 0
c83 0 120 -4 126 -12 4 -7 17 -40 28 -73 l20 -60 69 -3 c62 -3 68 -1 63 15 -3
10 -24 70 -47 133 -22 63 -70 200 -105 304 -35 104 -69 193 -77 197 -22 15
-135 11 -151 -5z m-444 -118 c33 -17 46 -39 47 -75 0 -47 -35 -83 -94 -94 -72
-13 -79 -6 -78 90 0 44 1 83 1 86 2 10 103 5 124 -7z m560 -101 c16 -56 29
-115 30 -132 l2 -29 -69 -1 c-44 0 -70 4 -73 12 -3 7 7 52 21 100 14 48 26 93
26 100 0 22 21 66 28 59 4 -4 20 -53 35 -109z"/>
<path d="M2332 1078 l3 -323 55 0 55 0 2 220 c1 121 2 228 2 238 2 30 20 9 27
-31 4 -20 12 -53 20 -72 7 -19 22 -69 35 -110 12 -41 34 -113 49 -160 l28 -85
54 -3 c36 -2 58 1 64 10 6 7 38 99 73 203 106 323 95 319 101 35 l5 -245 55 0
55 0 3 323 2 323 -91 -3 -92 -3 -32 -100 c-18 -55 -52 -162 -76 -237 -24 -77
-49 -138 -56 -138 -11 0 -50 116 -118 350 -41 139 -31 130 -135 130 l-90 0 2
-322z"/>
<path d="M3145 1387 c-3 -7 -4 -152 -3 -322 l3 -310 59 -3 c40 -2 62 1 68 10
9 13 9 603 1 626 -7 17 -122 17 -128 -1z"/>
<path d="M3396 1383 c-2 -10 -5 -151 -5 -315 0 -332 -3 -321 71 -316 l43 3 2
225 c1 124 2 231 3 238 1 27 18 8 53 -58 20 -39 60 -110 88 -158 29 -48 73
-123 99 -167 l48 -80 83 0 84 0 3 300 c1 165 0 310 -3 323 -5 19 -12 22 -60
22 l-55 0 0 -235 c0 -129 -4 -235 -9 -235 -9 0 -78 114 -136 225 -20 39 -60
109 -88 157 l-52 88 -82 0 c-69 0 -82 -3 -87 -17z"/>
<path d="M4092 1078 l3 -323 60 0 60 0 3 323 2 322 -65 0 -65 0 2 -322z"/>
<path d="M4732 1348 l3 -53 75 -2 c41 0 81 -2 87 -2 10 -1 13 -65 15 -268 l3
-268 60 0 60 0 5 270 5 270 75 -3 c41 -1 81 1 88 6 9 6 12 25 10 53 l-3 44
-243 3 -243 2 3 -52z"/>
<path d="M5277 1393 c-10 -9 -8 -616 1 -631 7 -9 50 -12 183 -10 l174 3 0 50
0 50 -112 3 -113 3 0 84 0 84 108 3 107 3 3 38 c5 61 -7 67 -120 67 l-99 0 3
78 3 77 113 3 112 3 0 49 0 50 -178 0 c-98 0 -182 -3 -185 -7z"/>
<path d="M5742 1079 l3 -324 60 0 60 0 5 120 5 120 31 3 c37 4 43 -3 137 -148
l62 -95 68 -3 c37 -2 67 0 67 4 0 3 -38 62 -85 130 -47 68 -85 130 -85 138 0
8 15 24 34 36 51 31 80 97 73 165 -7 73 -29 110 -84 142 -45 26 -55 27 -200
31 l-153 4 2 -323z m272 190 c21 -16 26 -29 26 -64 0 -60 -24 -87 -86 -94 -85
-11 -84 -12 -84 90 l0 89 59 0 c44 0 65 -5 85 -21z"/>
<path d="M6295 1387 c-3 -7 -4 -152 -3 -322 l3 -310 63 -3 62 -3 0 326 0 325
-60 0 c-40 0 -62 -4 -65 -13z"/>
<path d="M7415 1388 c-3 -7 -4 -153 -3 -323 l3 -310 135 1 c152 0 197 10 266
57 107 71 144 193 113 362 -17 95 -69 156 -174 205 -44 20 -333 27 -340 8z
m306 -121 c49 -33 73 -87 77 -181 8 -148 -53 -219 -188 -220 l-65 -1 -3 213
-2 212 73 0 c60 0 80 -4 108 -23z"/>
<path d="M8038 1343 c-5 -218 -2 -570 5 -580 7 -10 56 -13 182 -13 l172 0 6
41 c9 69 8 69 -119 69 l-115 0 3 83 3 82 102 3 c110 3 113 5 109 62 -2 46 -11
50 -117 50 l-100 0 3 78 3 77 111 3 111 3 6 35 c11 65 14 64 -184 64 l-179 0
-2 -57z"/>
<path d="M8692 1078 l3 -323 50 0 50 0 3 238 c1 130 6 237 11 237 5 0 16 -26
24 -57 9 -32 32 -110 52 -173 20 -63 40 -128 44 -145 5 -16 15 -47 24 -68 l16
-38 57 3 57 3 22 65 c12 36 27 79 33 95 6 17 29 89 51 160 39 122 59 173 62
150 0 -5 1 -113 2 -240 l2 -230 60 0 60 0 0 320 0 320 -92 3 -91 3 -37 -118
c-20 -65 -44 -140 -52 -168 -9 -27 -24 -72 -34 -100 -10 -27 -20 -60 -24 -72
-3 -13 -12 -23 -20 -23 -7 0 -15 10 -18 23 -6 23 -93 313 -122 405 l-17 52
-89 0 -89 0 2 -322z"/>
<path d="M10082 1078 l3 -323 130 0 c205 1 297 41 357 155 52 100 48 261 -9
358 -56 95 -156 132 -355 132 l-128 0 2 -322z m292 198 c18 -7 43 -28 55 -45
48 -67 52 -227 8 -292 -34 -51 -80 -72 -156 -73 l-66 -1 -3 213 -2 212 65 0
c36 0 81 -6 99 -14z"/>
<path d="M10700 1168 c0 -128 4 -249 10 -268 14 -50 62 -104 117 -131 37 -18
66 -23 128 -23 93 -1 152 19 203 67 63 60 66 77 68 334 0 127 -2 237 -6 243
-4 7 -30 10 -66 8 l-59 -3 -3 -236 -2 -235 -28 -34 c-24 -29 -35 -34 -83 -37
-71 -5 -119 18 -136 67 -8 23 -12 113 -12 258 l-1 222 -65 0 -65 0 0 -232z"/>
<path d="M11348 1394 c-5 -4 -8 -148 -8 -320 0 -275 2 -313 16 -318 27 -10 99
-7 112 6 8 8 12 50 12 125 l0 113 35 0 c40 0 39 1 169 -207 l26 -43 65 0 c36
0 65 4 65 9 0 8 -35 61 -147 224 l-27 39 47 39 c37 32 50 52 63 95 14 49 14
59 0 107 -16 56 -39 83 -96 113 -28 14 -65 19 -180 22 -80 2 -148 0 -152 -4z
m261 -119 c33 -16 41 -33 41 -80 0 -51 -46 -85 -116 -85 l-54 0 0 90 0 90 50
0 c28 0 64 -7 79 -15z"/>
<path d="M11902 1078 l3 -323 178 -3 178 -2 -3 52 -3 53 -113 3 -113 3 3 82 3
82 105 5 105 5 0 50 0 50 -108 3 -108 3 3 77 3 77 113 3 112 3 0 49 0 50 -180
0 -180 0 2 -322z"/>
<path d="M12362 1078 l3 -323 60 0 60 0 3 323 2 322 -65 0 -65 0 2 -322z"/>
</g>
</svg>
